<svg width="39" height="39" viewBox="0 0 39 39" fill="none" xmlns="http://www.w3.org/2000/svg">
<path d="M23.3246 13.7933C23.3478 13.8862 23.4404 13.9404 23.5252 13.9172L27.6464 12.9647C27.739 12.9415 27.793 12.8485 27.7699 12.7634L27.4457 11.3385C27.4226 11.2455 27.33 11.1913 27.2451 11.2146L25.6244 11.5863C25.8945 10.8971 26.1646 10.2079 26.4347 9.51865C26.5428 9.23987 26.6585 8.95334 26.7666 8.67456C26.8129 8.55066 26.7049 8.3106 26.6817 8.19444L26.5505 7.61364C26.5274 7.52072 26.4347 7.46651 26.3499 7.48974L22.468 8.38804C22.3753 8.41127 22.3213 8.5042 22.3445 8.58938L22.6686 10.0143C22.6918 10.1072 22.7844 10.1614 22.8693 10.1382L24.2893 9.80518C24.0115 10.4944 23.7413 11.1836 23.4635 11.8728C23.3477 12.1671 23.2243 12.4691 23.1085 12.7634C23.0622 12.8795 23.1548 13.0886 23.178 13.197L23.3169 13.7856L23.3246 13.7933Z" fill="#EC5825"/>
<path d="M28.6495 9.16997C30.2856 8.79051 31.9294 8.41106 33.5655 8.03161C33.6581 8.00838 33.7121 7.91545 33.689 7.83027L33.2954 6.1266C33.2722 6.03367 33.1796 5.97947 33.0947 6.0027L31.1036 6.45959C31.4278 5.63873 31.7519 4.81788 32.076 3.99702C32.215 3.6408 32.3539 3.29232 32.4928 2.9361C32.5468 2.80445 32.431 2.5489 32.4002 2.425L32.2304 1.68933C32.2072 1.5964 32.1146 1.54219 32.0297 1.56542L27.3992 2.64183C27.3066 2.66506 27.2526 2.75799 27.2758 2.84317L27.6693 4.54684C27.6925 4.63977 27.7851 4.69397 27.87 4.67074L29.6296 4.26031C29.2977 5.08117 28.9736 5.90977 28.6418 6.73063C28.4951 7.10234 28.3485 7.4663 28.2019 7.83801C28.1555 7.96191 28.2482 8.18649 28.279 8.30264L28.4488 9.04606C28.472 9.13899 28.5646 9.1932 28.6495 9.16997Z" fill="#EC5825"/>
<path fill-rule="evenodd" clip-rule="evenodd" d="M20.2532 19.3278C25.9941 15.8889 30.7715 21.3642 29.7608 28.8045C27.6129 40.3175 13.1937 32.0136 22.4959 26.7602C12.9173 26.7443 15.539 41.9498 28.063 37.7344C45.0486 29.169 29.1764 5.75455 20.2532 19.3278Z" fill="#EC5825"/>
<path fill-rule="evenodd" clip-rule="evenodd" d="M18.9585 19.5332C13.9442 10.0486 1.53859 18.8518 3.94705 29.0099C5.85803 35.2379 10.0037 39.1681 17.1976 38.2093C4.16026 33.7324 9.45098 13.3766 18.9585 19.5332Z" fill="#EC5825"/>
<path d="M19.7324 18.2902C20.8932 16.5628 21.1774 14.3283 20.3641 12.3078C19.4955 10.1288 17.853 9.29681 17.7029 9.16211C17.5213 9.20965 15.6656 9.24135 13.9283 10.8023C13.2098 11.4441 12.657 12.2286 12.2938 13.1081C15.0418 13.6152 17.1739 14.9385 18.6031 16.7292C19.0138 17.1967 19.377 17.7197 19.6771 18.2981C19.6929 18.2981 19.7087 18.2981 19.7245 18.2981L19.7324 18.2902Z" fill="#2BA549"/>
</svg>
