<svg width="150" height="40" viewBox="0 0 150 40" fill="none" xmlns="http://www.w3.org/2000/svg">
<g id="Group 7">
<path id="Vector" d="M22.5483 32.9066H15.8365L5.93522 15.3702L6.13861 32.9066H0V7.16992H7.248L16.5761 23.7644L16.3727 7.16992H22.5483V32.9066Z" fill="#00002D"/>
<path id="Vector_2" d="M43.4972 32.8882H30.2215C28.3818 32.8882 26.9211 32.3987 25.8395 31.4106C24.7486 30.4502 24.2031 29.0373 24.2031 27.1904C24.2031 24.9741 24.804 23.3858 26.0059 22.4162C27.2077 21.4465 29.1491 20.9663 31.8487 20.9663H37.7099C37.7099 20.0521 37.4418 19.3872 36.8964 18.9809C36.3417 18.6115 35.3062 18.4268 33.7716 18.4268H25.405V13.8096H35.5836C38.1722 13.8096 40.1321 14.4098 41.4818 15.6011C42.8316 16.7923 43.4972 18.6023 43.4972 21.031V32.8789V32.8882ZM37.7007 28.3448V25.482H32.505C31.4696 25.482 30.7947 25.5836 30.4897 25.7868C30.1753 25.9899 30.0274 26.4055 30.0274 27.0335C30.0274 27.5044 30.1384 27.8461 30.351 28.0677C30.4619 28.1601 30.6745 28.2247 30.9796 28.2709C31.2847 28.3171 31.673 28.3355 32.1445 28.3355H37.7007V28.3448Z" fill="#00002D"/>
<path id="Vector_3" d="M63.9753 23.589C63.9753 24.7156 63.8089 25.8607 63.4761 27.0334C63.2727 27.6522 63.0601 28.1601 62.8567 28.5479C62.6163 28.9727 62.302 29.4252 61.923 29.8869C61.1279 30.9397 60.1387 31.7154 58.9554 32.214C57.735 32.6573 56.2189 32.8882 54.4069 32.8882H50.7644V39.5001H45.125V13.8096H54.7304C57.6149 13.8096 59.8891 14.6684 61.5439 16.3768C63.1618 18.0852 63.9753 20.4862 63.9753 23.5797V23.589ZM58.1141 23.1919C58.1141 21.4835 57.7905 20.2922 57.1341 19.6273C56.5055 18.9255 55.3221 18.5746 53.6026 18.5746L50.7736 18.6115V28.1416H53.205C54.9985 28.1416 56.2743 27.7537 57.0324 26.9688C57.4022 26.6271 57.6796 26.1377 57.8737 25.519C58.0309 24.9095 58.1141 24.1338 58.1141 23.1919Z" fill="#00002D"/>
<path id="Vector_4" d="M79.4133 22.3146H73.9773V19.4888C73.9773 18.9255 73.9034 18.5746 73.7647 18.4453C73.6168 18.316 73.4411 18.2329 73.2377 18.2144C73.0343 18.1867 72.7293 18.1775 72.3225 18.1775H71.0837V32.9066H65.4258V13.8003H73.8756C75.9003 13.8003 77.3055 14.1789 78.082 14.9361C78.4703 15.2963 78.7847 15.795 79.025 16.4506C79.2561 17.1063 79.3763 17.8912 79.3763 18.8147L79.4133 22.3146Z" fill="#00002D"/>
<path id="Vector_5" d="M86.8748 32.9066H80.9766V13.8003H86.8748V32.9066Z" fill="#00002D"/>
<path id="Vector_6" d="M105.326 32.8882H98.411C97.5605 32.8882 96.7932 32.842 96.0998 32.7496C95.4249 32.6573 94.787 32.528 94.2046 32.3526C93.1507 31.9832 92.1707 31.3922 91.274 30.561C90.8672 30.1547 90.5067 29.6745 90.1738 29.1112C89.8318 28.5756 89.5082 27.9846 89.2216 27.3567C88.9905 26.7472 88.8148 26.1192 88.6854 25.482C88.5745 24.8541 88.5098 24.1523 88.5098 23.395C88.5098 21.9729 88.7501 20.6339 89.2216 19.378C89.6931 18.1498 90.3772 17.0417 91.274 16.0536C92.0875 15.3056 93.0675 14.7515 94.2046 14.3821C95.3325 14.0035 96.7377 13.8096 98.411 13.8096H105.326V18.6023H99.807C98.6607 18.6023 97.7362 18.6669 97.052 18.8055C96.3772 18.9809 95.841 19.258 95.4619 19.6458C94.6761 20.3569 94.2878 21.6035 94.2878 23.3858C94.2878 24.3739 94.4635 25.2142 94.8055 25.8976C95.1014 26.5717 95.5729 27.135 96.22 27.5875L97.3386 27.9846C97.653 28.0308 97.9673 28.0677 98.2909 28.0862C98.6237 28.1139 99.1321 28.1231 99.807 28.1231H105.326V32.8789V32.8882Z" fill="#00002D"/>
<path id="Vector_7" d="M149.999 32.8882H145.201C143.315 32.8882 141.864 32.3618 140.856 31.2998C139.848 30.2655 139.34 28.7418 139.34 26.7195V18.2976H135.975V13.8188H139.34V7.16992H144.979V13.8188H149.999V18.2976H144.979V25.205C144.979 26.4424 145.155 27.292 145.515 27.7353C145.922 28.1601 146.615 28.3725 147.605 28.3725H149.999V32.8882Z" fill="#00002D"/>
<g id="Icon">
<g id="Group 9">
<path id="Vector_8" d="M124.067 11.2485C124.088 11.3301 124.169 11.3778 124.244 11.3573L127.882 10.5204C127.964 10.5 128.011 10.4184 127.991 10.3435L127.705 9.09152C127.684 9.00987 127.602 8.96224 127.528 8.98265L126.097 9.30926C126.335 8.70368 126.574 8.09809 126.812 7.49251C126.908 7.24756 127.01 6.9958 127.105 6.75085C127.146 6.64198 127.051 6.43105 127.03 6.32898L126.914 5.81866C126.894 5.73701 126.812 5.68938 126.737 5.70979L123.311 6.49909C123.229 6.5195 123.182 6.60115 123.202 6.676L123.488 7.92799C123.509 8.00964 123.59 8.05727 123.665 8.03686L124.919 7.74427C124.673 8.34985 124.435 8.95543 124.19 9.56101C124.088 9.81958 123.979 10.0849 123.876 10.3435C123.835 10.4456 123.917 10.6293 123.938 10.7245L124.06 11.2417L124.067 11.2485Z" fill="url(#paint0_linear_10214_5997)"/>
<path id="Vector_9" d="M128.768 7.18652C130.212 6.85311 131.663 6.5197 133.107 6.18629C133.189 6.16588 133.237 6.08422 133.216 6.00938L132.869 4.51244C132.848 4.43078 132.767 4.38315 132.692 4.40357L130.934 4.80502C131.22 4.08377 131.506 3.36251 131.793 2.64126C131.915 2.32826 132.038 2.02207 132.16 1.70907C132.208 1.5934 132.106 1.36886 132.079 1.25999L131.929 0.613583C131.908 0.531932 131.827 0.484302 131.752 0.504715L127.664 1.45051C127.583 1.47092 127.535 1.55257 127.556 1.62742L127.903 3.12436C127.923 3.20601 128.005 3.25364 128.08 3.23323L129.633 2.8726C129.34 3.59386 129.054 4.32192 128.761 5.04317C128.632 5.36977 128.502 5.68958 128.373 6.01618C128.332 6.12505 128.414 6.32237 128.441 6.42444L128.591 7.07765C128.611 7.1593 128.693 7.20693 128.768 7.18652Z" fill="url(#paint1_linear_10214_5997)"/>
</g>
<g id="Group 5">
<path id="Vector_10" fill-rule="evenodd" clip-rule="evenodd" d="M121.357 16.1115C126.425 13.0899 130.641 17.9008 129.749 24.4383C127.853 34.5543 115.126 27.2579 123.337 22.642C114.882 22.6281 117.196 35.9885 128.251 32.2847C143.243 24.7585 129.234 4.18522 121.357 16.1115Z" fill="url(#paint2_linear_10214_5997)"/>
<path id="Vector_11" fill-rule="evenodd" clip-rule="evenodd" d="M120.214 16.2921C115.788 7.95835 104.838 15.6934 106.964 24.6189C108.651 30.0912 112.31 33.5444 118.66 32.702C107.152 28.7684 111.822 10.8825 120.214 16.2921Z" fill="url(#paint3_linear_10214_5997)"/>
<path id="Vector_12" d="M120.898 15.1992C121.922 13.6814 122.173 11.7181 121.455 9.9427C120.689 8.0281 119.239 7.29707 119.106 7.17871C118.946 7.22048 117.308 7.24833 115.775 8.61989C115.141 9.18382 114.653 9.87308 114.332 10.6459C116.758 11.0915 118.639 12.2542 119.901 13.8276C120.264 14.2384 120.584 14.6979 120.849 15.2061C120.863 15.2061 120.877 15.2061 120.891 15.2061L120.898 15.1992Z" fill="#2BA549"/>
</g>
</g>
</g>
<defs>
<linearGradient id="paint0_linear_10214_5997" x1="125.596" y1="5.70508" x2="125.596" y2="11.3621" gradientUnits="userSpaceOnUse">
<stop stop-color="#FF855B"/>
<stop offset="1" stop-color="#CF3500"/>
</linearGradient>
<linearGradient id="paint1_linear_10214_5997" x1="130.386" y1="0.5" x2="130.386" y2="7.19123" gradientUnits="userSpaceOnUse">
<stop stop-color="#FF855B"/>
<stop offset="1" stop-color="#CF3500"/>
</linearGradient>
<linearGradient id="paint2_linear_10214_5997" x1="126.557" y1="12.4731" x2="126.557" y2="32.9336" gradientUnits="userSpaceOnUse">
<stop stop-color="#FF855B"/>
<stop offset="1" stop-color="#CF3500"/>
</linearGradient>
<linearGradient id="paint3_linear_10214_5997" x1="113.454" y1="12.7285" x2="113.454" y2="32.8281" gradientUnits="userSpaceOnUse">
<stop stop-color="#FF855B"/>
<stop offset="1" stop-color="#CF3500"/>
</linearGradient>
</defs>
</svg>
