<svg width="210" height="55" viewBox="0 0 210 55" fill="none" xmlns="http://www.w3.org/2000/svg">
<rect width="210" height="55" fill="#ACACAC"/>
<g id="01_Desktop_Homepage" clip-path="url(#clip0_0_1)">
<rect width="1920" height="7004" transform="translate(-854 -6830)" fill="white"/>
<g id="Frame 170">
<g id="Foooter">
<g id="Frame 154">
<g id="Frame 153">
<g id="Group 7">
<path id="Vector" d="M31.7275 45.477H22.3514L8.51976 20.8679L8.80389 45.477H0.228516V9.36035H10.3536L23.3846 32.6476L23.1005 9.36035H31.7275V45.477Z" fill="#00002D"/>
<path id="Vector_2" d="M60.9921 45.4509H42.4465C39.8765 45.4509 37.836 44.7641 36.325 43.3775C34.801 42.0298 34.0391 40.0471 34.0391 37.4553C34.0391 34.3451 34.8785 32.1162 36.5574 30.7555C38.2363 29.3948 40.9484 28.7209 44.7195 28.7209H52.9075C52.9075 27.438 52.5329 26.5049 51.771 25.9347C50.9961 25.4164 49.5496 25.1572 47.4058 25.1572H35.718V18.6777H49.9371C53.5532 18.6777 56.2911 19.5201 58.1767 21.1918C60.0622 22.8635 60.9921 25.4034 60.9921 28.8116V45.438V45.4509ZM52.8945 39.0751V35.0579H45.6365C44.19 35.0579 43.2472 35.2004 42.8211 35.4855C42.382 35.7706 42.1753 36.3538 42.1753 37.235C42.1753 37.8959 42.3303 38.3754 42.6273 38.6864C42.7823 38.816 43.0794 38.9067 43.5055 38.9715C43.9317 39.0363 44.4741 39.0622 45.1328 39.0622H52.8945V39.0751Z" fill="#00002D"/>
<path id="Vector_3" d="M89.5987 32.4013C89.5987 33.9823 89.3663 35.5892 88.9013 37.235C88.6172 38.1032 88.3202 38.816 88.036 39.3602C87.7003 39.9563 87.2612 40.5913 86.7317 41.2393C85.621 42.7166 84.2391 43.8052 82.586 44.5049C80.8813 45.127 78.7633 45.4509 76.232 45.4509H71.1436V54.7296H63.2656V18.6777H76.684C80.7134 18.6777 83.8904 19.8829 86.2022 22.2803C88.4622 24.6777 89.5987 28.0471 89.5987 32.3883V32.4013ZM81.4108 31.844C81.4108 29.4466 80.9588 27.7749 80.0418 26.8419C79.1636 25.857 77.5106 25.3646 75.1084 25.3646L71.1565 25.4164V38.79H74.5531C77.0585 38.79 78.8408 38.2458 79.8998 37.1442C80.4164 36.6648 80.8038 35.9779 81.075 35.1097C81.2946 34.2544 81.4108 33.1658 81.4108 31.844Z" fill="#00002D"/>
<path id="Vector_4" d="M111.165 30.6122H103.571V26.6468C103.571 25.8563 103.468 25.3638 103.274 25.1824C103.067 25.001 102.822 24.8844 102.538 24.8584C102.254 24.8196 101.828 24.8066 101.259 24.8066H99.5288V45.4761H91.625V18.6641H103.429C106.257 18.6641 108.22 19.1954 109.305 20.258C109.848 20.7634 110.287 21.4632 110.623 22.3833C110.945 23.3034 111.113 24.4049 111.113 25.7008L111.165 30.6122Z" fill="#00002D"/>
<path id="Vector_5" d="M121.587 45.4761H113.348V18.6641H121.587V45.4761Z" fill="#00002D"/>
<path id="Vector_6" d="M147.365 45.4509H137.705C136.517 45.4509 135.445 45.3861 134.476 45.2566C133.533 45.127 132.642 44.9455 131.828 44.6993C130.356 44.181 128.987 43.3516 127.735 42.1853C127.166 41.6151 126.663 40.9412 126.198 40.1507C125.72 39.3991 125.268 38.5697 124.867 37.6885C124.545 36.8332 124.299 35.952 124.118 35.0579C123.963 34.1766 123.873 33.1918 123.873 32.1291C123.873 30.1335 124.209 28.2544 124.867 26.492C125.526 24.7684 126.482 23.2134 127.735 21.8268C128.871 20.7771 130.24 19.9995 131.828 19.4812C133.404 18.9499 135.367 18.6777 137.705 18.6777H147.365V25.4034H139.655C138.053 25.4034 136.762 25.4941 135.806 25.6885C134.863 25.9348 134.114 26.3235 133.585 26.8678C132.487 27.8656 131.945 29.6151 131.945 32.1162C131.945 33.5028 132.19 34.682 132.668 35.641C133.081 36.587 133.74 37.3775 134.644 38.0125L136.207 38.5697C136.646 38.6345 137.085 38.6864 137.537 38.7123C138.002 38.7512 138.712 38.7641 139.655 38.7641H147.365V45.438V45.4509Z" fill="#00002D"/>
<path id="Vector_7" d="M209.771 45.4511H203.069C200.434 45.4511 198.406 44.7124 196.999 43.2221C195.591 41.7707 194.881 39.6325 194.881 36.7945V24.9759H190.18V18.6908H194.881V9.36035H202.759V18.6908H209.771V24.9759H202.759V34.6692C202.759 36.4057 203.004 37.5979 203.508 38.22C204.076 38.8161 205.045 39.1141 206.426 39.1141H209.771V45.4511Z" fill="#00002D"/>
<g id="Group 9">
<path id="Vector_8" d="M173.545 15.0838C173.574 15.1984 173.688 15.2652 173.793 15.2366L178.874 14.0621C178.988 14.0335 179.055 13.9189 179.026 13.8139L178.627 12.0569C178.598 11.9423 178.484 11.8755 178.379 11.9041L176.381 12.3625C176.714 11.5127 177.047 10.6628 177.38 9.81302C177.513 9.46927 177.656 9.11598 177.789 8.77223C177.846 8.61945 177.713 8.32345 177.685 8.18022L177.523 7.46408C177.494 7.3495 177.38 7.28266 177.275 7.3113L172.489 8.41893C172.375 8.44758 172.308 8.56216 172.337 8.66719L172.736 10.4241C172.765 10.5387 172.879 10.6055 172.984 10.5769L174.735 10.1663C174.392 11.0161 174.059 11.866 173.716 12.7158C173.574 13.0786 173.421 13.451 173.279 13.8139C173.222 13.9571 173.336 14.2149 173.364 14.3486L173.536 15.0743L173.545 15.0838Z" fill="url(#paint0_linear_0_1)"/>
<path id="Vector_9" d="M180.111 9.38327C182.128 8.91539 184.155 8.44751 186.172 7.97964C186.286 7.95099 186.353 7.83641 186.324 7.73137L185.839 5.6307C185.811 5.51612 185.696 5.44928 185.592 5.47792L183.137 6.04129C183.536 5.02914 183.936 4.017 184.336 3.00485C184.507 2.56562 184.678 2.13594 184.85 1.69671C184.916 1.53438 184.773 1.21928 184.735 1.0665L184.526 0.159393C184.497 0.0448103 184.383 -0.0220294 184.279 0.0066162L178.569 1.33386C178.455 1.36251 178.388 1.47709 178.417 1.58212L178.902 3.6828C178.931 3.79738 179.045 3.86422 179.149 3.83558L181.319 3.3295C180.91 4.34165 180.51 5.36334 180.101 6.37548C179.92 6.83381 179.739 7.28259 179.559 7.74092C179.502 7.8937 179.616 8.17061 179.654 8.31383L179.863 9.23049C179.892 9.34508 180.006 9.41191 180.111 9.38327Z" fill="url(#paint1_linear_0_1)"/>
</g>
<g id="Group 5">
<path id="Vector_10" fill-rule="evenodd" clip-rule="evenodd" d="M169.76 21.9075C176.838 17.6672 182.729 24.4184 181.483 33.5925C178.834 47.7886 161.055 37.5494 172.525 31.0718C160.714 31.0523 163.947 49.8012 179.389 44.6035C200.333 34.042 180.762 5.17121 169.76 21.9075Z" fill="url(#paint2_linear_0_1)"/>
<path id="Vector_11" fill-rule="evenodd" clip-rule="evenodd" d="M168.163 22.162C161.981 10.4671 146.684 21.3217 149.654 33.847C152.01 41.5264 157.122 46.3724 165.992 45.1902C149.917 39.67 156.44 14.5706 168.163 22.162Z" fill="url(#paint3_linear_0_1)"/>
<path id="Vector_12" d="M169.117 20.6282C170.549 18.4984 170.899 15.7432 169.896 13.2518C168.825 10.565 166.8 9.53914 166.615 9.37305C166.391 9.43167 164.103 9.47075 161.961 11.3955C161.075 12.1868 160.393 13.1541 159.945 14.2386C163.334 14.8639 165.963 16.4955 167.725 18.7035C168.231 19.28 168.679 19.9248 169.049 20.638C169.069 20.638 169.088 20.638 169.108 20.638L169.117 20.6282Z" fill="#2BA549"/>
</g>
</g>
</g>
</g>
</g>
</g>
</g>
<defs>
<linearGradient id="paint0_linear_0_1" x1="175.682" y1="7.30469" x2="175.682" y2="15.2432" gradientUnits="userSpaceOnUse">
<stop stop-color="#FF855B"/>
<stop offset="1" stop-color="#CF3500"/>
</linearGradient>
<linearGradient id="paint1_linear_0_1" x1="182.371" y1="0" x2="182.371" y2="9.38988" gradientUnits="userSpaceOnUse">
<stop stop-color="#FF855B"/>
<stop offset="1" stop-color="#CF3500"/>
</linearGradient>
<linearGradient id="paint2_linear_0_1" x1="177.023" y1="16.8018" x2="177.023" y2="45.5142" gradientUnits="userSpaceOnUse">
<stop stop-color="#FF855B"/>
<stop offset="1" stop-color="#CF3500"/>
</linearGradient>
<linearGradient id="paint3_linear_0_1" x1="158.719" y1="17.1611" x2="158.719" y2="45.3672" gradientUnits="userSpaceOnUse">
<stop stop-color="#FF855B"/>
<stop offset="1" stop-color="#CF3500"/>
</linearGradient>
<clipPath id="clip0_0_1">
<rect width="1920" height="7004" fill="white" transform="translate(-854 -6830)"/>
</clipPath>
</defs>
</svg>
