<svg width="28" height="28" viewBox="0 0 28 28" fill="none" xmlns="http://www.w3.org/2000/svg">
<circle opacity="0.87" cx="0.35" cy="2.44985" r="0.35" fill="#F1F1F1"/>
<circle opacity="0.44" cx="2.45004" cy="2.44985" r="0.35" fill="#F1F1F1"/>
<circle opacity="0.69" cx="4.55001" cy="2.44985" r="0.35" fill="#F1F1F1"/>
<circle opacity="0.73" cx="6.64999" cy="2.44985" r="0.35" fill="#F1F1F1"/>
<circle opacity="0.66" cx="8.75002" cy="2.44985" r="0.35" fill="#F1F1F1"/>
<circle opacity="0.39" cx="10.85" cy="2.44985" r="0.35" fill="#F1F1F1"/>
<circle opacity="0.77" cx="12.95" cy="2.44985" r="0.35" fill="#F1F1F1"/>
<circle opacity="0.78" cx="15.05" cy="2.44985" r="0.35" fill="#F1F1F1"/>
<circle opacity="0.78" cx="27.65" cy="2.44985" r="0.35" fill="#F1F1F1"/>
<circle opacity="0.37" cx="17.15" cy="2.44985" r="0.35" fill="#F1F1F1"/>
<circle opacity="0.52" cx="19.25" cy="2.44985" r="0.35" fill="#F1F1F1"/>
<circle opacity="0.56" cx="21.3501" cy="2.44985" r="0.35" fill="#F1F1F1"/>
<circle opacity="0.51" cx="23.45" cy="2.44985" r="0.35" fill="#F1F1F1"/>
<circle opacity="0.78" cx="25.55" cy="2.44985" r="0.35" fill="#F1F1F1"/>
<circle opacity="0.72" cx="0.35" cy="4.54995" r="0.35" fill="#F1F1F1"/>
<circle opacity="0.85" cx="2.45004" cy="4.54995" r="0.35" fill="#F1F1F1"/>
<circle opacity="0.79" cx="4.55001" cy="4.54995" r="0.35" fill="#F1F1F1"/>
<circle opacity="0.52" cx="6.64999" cy="4.54995" r="0.35" fill="#F1F1F1"/>
<circle opacity="0.74" cx="8.75002" cy="4.54995" r="0.35" fill="#F1F1F1"/>
<circle opacity="0.53" cx="10.85" cy="4.54995" r="0.35" fill="#F1F1F1"/>
<circle opacity="0.51" cx="15.05" cy="4.54995" r="0.35" fill="#F1F1F1"/>
<circle opacity="0.23" cx="12.95" cy="4.54995" r="0.35" fill="#F1F1F1"/>
<circle opacity="0.51" cx="27.65" cy="4.54995" r="0.35" fill="#F1F1F1"/>
<circle opacity="0.27" cx="17.15" cy="4.54995" r="0.35" fill="#F1F1F1"/>
<circle opacity="0.87" cx="19.25" cy="4.54995" r="0.35" fill="#F1F1F1"/>
<circle opacity="0.51" cx="21.3501" cy="4.54995" r="0.35" fill="#F1F1F1"/>
<circle opacity="0.2" cx="23.45" cy="4.54995" r="0.35" fill="#F1F1F1"/>
<circle opacity="0.74" cx="25.55" cy="4.54995" r="0.35" fill="#F1F1F1"/>
<circle opacity="0.42" cx="0.35" cy="6.65005" r="0.35" fill="#F1F1F1"/>
<circle opacity="0.88" cx="2.45004" cy="6.65005" r="0.35" fill="#F1F1F1"/>
<circle opacity="0.58" cx="4.55001" cy="6.65005" r="0.35" fill="#F1F1F1"/>
<circle opacity="0.36" cx="6.65005" cy="6.65005" r="0.35" fill="#F1F1F1"/>
<circle opacity="0.49" cx="8.75002" cy="6.65005" r="0.35" fill="#F1F1F1"/>
<circle opacity="0.8" cx="15.05" cy="6.65005" r="0.35" fill="#F1F1F1"/>
<circle opacity="0.88" cx="10.85" cy="6.65005" r="0.35" fill="#F1F1F1"/>
<circle opacity="0.55" cx="12.95" cy="6.65005" r="0.35" fill="#F1F1F1"/>
<circle opacity="0.8" cx="27.65" cy="6.65005" r="0.35" fill="#F1F1F1"/>
<circle opacity="0.75" cx="17.15" cy="6.65005" r="0.35" fill="#F1F1F1"/>
<circle opacity="0.87" cx="19.25" cy="6.65005" r="0.35" fill="#F1F1F1"/>
<circle opacity="0.33" cx="21.35" cy="6.65005" r="0.35" fill="#F1F1F1"/>
<circle opacity="0.84" cx="23.45" cy="6.65005" r="0.35" fill="#F1F1F1"/>
<circle opacity="0.83" cx="25.55" cy="6.65005" r="0.35" fill="#F1F1F1"/>
<circle opacity="0.42" cx="0.35" cy="0.35" r="0.35" fill="#F1F1F1"/>
<circle opacity="0.88" cx="2.45004" cy="0.35" r="0.35" fill="#F1F1F1"/>
<circle opacity="0.58" cx="4.55001" cy="0.35" r="0.35" fill="#F1F1F1"/>
<circle opacity="0.36" cx="6.65005" cy="0.35" r="0.35" fill="#F1F1F1"/>
<circle opacity="0.8" cx="15.05" cy="0.35" r="0.35" fill="#F1F1F1"/>
<circle opacity="0.49" cx="8.75002" cy="0.35" r="0.35" fill="#F1F1F1"/>
<circle opacity="0.88" cx="10.85" cy="0.35" r="0.35" fill="#F1F1F1"/>
<circle opacity="0.55" cx="12.95" cy="0.35" r="0.35" fill="#F1F1F1"/>
<circle opacity="0.8" cx="27.65" cy="0.35" r="0.35" fill="#F1F1F1"/>
<circle opacity="0.75" cx="17.15" cy="0.35" r="0.35" fill="#F1F1F1"/>
<circle opacity="0.87" cx="19.25" cy="0.35" r="0.35" fill="#F1F1F1"/>
<circle opacity="0.33" cx="21.35" cy="0.35" r="0.35" fill="#F1F1F1"/>
<circle opacity="0.84" cx="23.45" cy="0.35" r="0.35" fill="#F1F1F1"/>
<circle opacity="0.83" cx="25.55" cy="0.35" r="0.35" fill="#F1F1F1"/>
<circle opacity="0.62" cx="0.35" cy="8.7499" r="0.35" fill="#F1F1F1"/>
<circle opacity="0.62" cx="2.45004" cy="8.7499" r="0.35" fill="#F1F1F1"/>
<circle opacity="0.35" cx="4.55001" cy="8.7499" r="0.35" fill="#F1F1F1"/>
<circle opacity="0.65" cx="15.05" cy="8.7499" r="0.35" fill="#F1F1F1"/>
<circle opacity="0.53" cx="6.64999" cy="8.7499" r="0.35" fill="#F1F1F1"/>
<circle opacity="0.4" cx="8.75002" cy="8.7499" r="0.35" fill="#F1F1F1"/>
<circle opacity="0.67" cx="10.85" cy="8.7499" r="0.35" fill="#F1F1F1"/>
<circle opacity="0.64" cx="12.95" cy="8.7499" r="0.35" fill="#F1F1F1"/>
<circle opacity="0.65" cx="27.65" cy="8.7499" r="0.35" fill="#F1F1F1"/>
<circle opacity="0.53" cx="17.15" cy="8.7499" r="0.35" fill="#F1F1F1"/>
<circle opacity="0.76" cx="19.25" cy="8.7499" r="0.35" fill="#F1F1F1"/>
<circle opacity="0.54" cx="21.3501" cy="8.7499" r="0.35" fill="#F1F1F1"/>
<circle opacity="0.36" cx="23.45" cy="8.7499" r="0.35" fill="#F1F1F1"/>
<circle opacity="0.27" cx="25.55" cy="8.7499" r="0.35" fill="#F1F1F1"/>
<circle opacity="0.37" cx="0.35" cy="10.85" r="0.35" fill="#F1F1F1"/>
<circle opacity="0.8" cx="2.45004" cy="10.85" r="0.35" fill="#F1F1F1"/>
<circle opacity="0.79" cx="15.05" cy="10.85" r="0.35" fill="#F1F1F1"/>
<circle opacity="0.44" cx="4.55001" cy="10.85" r="0.35" fill="#F1F1F1"/>
<circle opacity="0.49" cx="6.65005" cy="10.85" r="0.35" fill="#F1F1F1"/>
<circle opacity="0.37" cx="8.75002" cy="10.85" r="0.35" fill="#F1F1F1"/>
<circle opacity="0.34" cx="10.85" cy="10.85" r="0.35" fill="#F1F1F1"/>
<circle opacity="0.31" cx="12.95" cy="10.85" r="0.35" fill="#F1F1F1"/>
<circle opacity="0.79" cx="27.65" cy="10.85" r="0.35" fill="#F1F1F1"/>
<circle opacity="0.7" cx="17.15" cy="10.85" r="0.35" fill="#F1F1F1"/>
<circle opacity="0.51" cx="19.25" cy="10.85" r="0.35" fill="#F1F1F1"/>
<circle opacity="0.33" cx="21.35" cy="10.85" r="0.35" fill="#F1F1F1"/>
<circle opacity="0.4" cx="23.45" cy="10.85" r="0.35" fill="#F1F1F1"/>
<circle opacity="0.59" cx="25.55" cy="10.85" r="0.35" fill="#F1F1F1"/>
<circle opacity="0.39" cx="0.35" cy="12.9501" r="0.35" fill="#F1F1F1"/>
<circle opacity="0.43" cx="15.05" cy="12.9501" r="0.35" fill="#F1F1F1"/>
<circle opacity="0.8" cx="2.45004" cy="12.9501" r="0.35" fill="#F1F1F1"/>
<circle opacity="0.49" cx="4.55001" cy="12.9501" r="0.35" fill="#F1F1F1"/>
<circle opacity="0.62" cx="6.65005" cy="12.9501" r="0.35" fill="#F1F1F1"/>
<circle opacity="0.81" cx="8.75002" cy="12.9501" r="0.35" fill="#F1F1F1"/>
<circle opacity="0.8" cx="10.85" cy="12.9501" r="0.35" fill="#F1F1F1"/>
<circle opacity="0.84" cx="12.95" cy="12.9501" r="0.35" fill="#F1F1F1"/>
<circle opacity="0.43" cx="27.65" cy="12.9501" r="0.35" fill="#F1F1F1"/>
<circle opacity="0.38" cx="17.15" cy="12.9501" r="0.35" fill="#F1F1F1"/>
<circle opacity="0.37" cx="19.25" cy="12.9501" r="0.35" fill="#F1F1F1"/>
<circle opacity="0.76" cx="21.35" cy="12.9501" r="0.35" fill="#F1F1F1"/>
<circle opacity="0.41" cx="23.45" cy="12.9501" r="0.35" fill="#F1F1F1"/>
<circle opacity="0.48" cx="25.55" cy="12.9501" r="0.35" fill="#F1F1F1"/>
<circle opacity="0.33" cx="15.05" cy="15.05" r="0.35" fill="#F1F1F1"/>
<circle opacity="0.52" cx="0.35" cy="15.05" r="0.35" fill="#F1F1F1"/>
<circle opacity="0.34" cx="2.45004" cy="15.05" r="0.35" fill="#F1F1F1"/>
<circle opacity="0.9" cx="4.55001" cy="15.05" r="0.35" fill="#F1F1F1"/>
<circle opacity="0.48" cx="6.64999" cy="15.05" r="0.35" fill="#F1F1F1"/>
<circle opacity="0.67" cx="8.75002" cy="15.05" r="0.35" fill="#F1F1F1"/>
<circle opacity="0.37" cx="10.85" cy="15.05" r="0.35" fill="#F1F1F1"/>
<circle opacity="0.66" cx="12.95" cy="15.05" r="0.35" fill="#F1F1F1"/>
<circle opacity="0.33" cx="27.65" cy="15.05" r="0.35" fill="#F1F1F1"/>
<circle opacity="0.88" cx="17.15" cy="15.05" r="0.35" fill="#F1F1F1"/>
<circle opacity="0.51" cx="19.25" cy="15.05" r="0.35" fill="#F1F1F1"/>
<circle opacity="0.55" cx="21.3501" cy="15.05" r="0.35" fill="#F1F1F1"/>
<circle opacity="0.39" cx="23.45" cy="15.05" r="0.35" fill="#F1F1F1"/>
<circle opacity="0.23" cx="15.05" cy="17.15" r="0.35" fill="#F1F1F1"/>
<circle opacity="0.59" cx="25.55" cy="15.05" r="0.35" fill="#F1F1F1"/>
<circle opacity="0.83" cx="0.35" cy="17.15" r="0.35" fill="#F1F1F1"/>
<circle opacity="0.57" cx="2.45004" cy="17.15" r="0.35" fill="#F1F1F1"/>
<circle opacity="0.89" cx="4.55001" cy="17.15" r="0.35" fill="#F1F1F1"/>
<circle opacity="0.38" cx="6.65005" cy="17.15" r="0.35" fill="#F1F1F1"/>
<circle opacity="0.25" cx="8.75002" cy="17.15" r="0.35" fill="#F1F1F1"/>
<circle opacity="0.28" cx="10.85" cy="17.15" r="0.35" fill="#F1F1F1"/>
<circle opacity="0.45" cx="12.95" cy="17.15" r="0.35" fill="#F1F1F1"/>
<circle opacity="0.23" cx="27.65" cy="17.15" r="0.35" fill="#F1F1F1"/>
<circle opacity="0.79" cx="17.15" cy="17.15" r="0.35" fill="#F1F1F1"/>
<circle opacity="0.77" cx="19.25" cy="17.15" r="0.35" fill="#F1F1F1"/>
<circle opacity="0.43" cx="21.35" cy="17.15" r="0.35" fill="#F1F1F1"/>
<circle opacity="0.66" cx="15.05" cy="19.2499" r="0.35" fill="#F1F1F1"/>
<circle opacity="0.29" cx="23.45" cy="17.15" r="0.35" fill="#F1F1F1"/>
<circle opacity="0.55" cx="25.55" cy="17.15" r="0.35" fill="#F1F1F1"/>
<circle opacity="0.62" cx="0.35" cy="19.2499" r="0.35" fill="#F1F1F1"/>
<circle opacity="0.65" cx="2.45004" cy="19.2499" r="0.35" fill="#F1F1F1"/>
<circle opacity="0.41" cx="4.55001" cy="19.2499" r="0.35" fill="#F1F1F1"/>
<circle opacity="0.26" cx="6.65005" cy="19.2499" r="0.35" fill="#F1F1F1"/>
<circle opacity="0.24" cx="8.75002" cy="19.2499" r="0.35" fill="#F1F1F1"/>
<circle opacity="0.68" cx="10.85" cy="19.2499" r="0.35" fill="#F1F1F1"/>
<circle opacity="0.31" cx="12.95" cy="19.2499" r="0.35" fill="#F1F1F1"/>
<circle opacity="0.66" cx="27.65" cy="19.2499" r="0.35" fill="#F1F1F1"/>
<circle opacity="0.55" cx="17.15" cy="19.2499" r="0.35" fill="#F1F1F1"/>
<circle opacity="0.52" cx="19.25" cy="19.2499" r="0.35" fill="#F1F1F1"/>
<circle opacity="0.68" cx="15.05" cy="21.35" r="0.35" fill="#F1F1F1"/>
<circle opacity="0.83" cx="21.35" cy="19.2499" r="0.35" fill="#F1F1F1"/>
<circle opacity="0.66" cx="23.45" cy="19.2499" r="0.35" fill="#F1F1F1"/>
<circle opacity="0.59" cx="25.55" cy="19.2499" r="0.35" fill="#F1F1F1"/>
<circle opacity="0.34" cx="0.35" cy="21.35" r="0.35" fill="#F1F1F1"/>
<circle opacity="0.43" cx="2.45004" cy="21.35" r="0.35" fill="#F1F1F1"/>
<circle opacity="0.84" cx="4.55001" cy="21.35" r="0.35" fill="#F1F1F1"/>
<circle opacity="0.51" cx="6.64999" cy="21.35" r="0.35" fill="#F1F1F1"/>
<circle opacity="0.77" cx="8.75002" cy="21.35" r="0.35" fill="#F1F1F1"/>
<circle opacity="0.56" cx="10.85" cy="21.35" r="0.35" fill="#F1F1F1"/>
<circle opacity="0.45" cx="12.95" cy="21.35" r="0.35" fill="#F1F1F1"/>
<circle opacity="0.68" cx="27.65" cy="21.35" r="0.35" fill="#F1F1F1"/>
<circle opacity="0.36" cx="17.15" cy="21.35" r="0.35" fill="#F1F1F1"/>
<circle opacity="0.26" cx="15.05" cy="23.4501" r="0.35" fill="#F1F1F1"/>
<circle opacity="0.28" cx="19.25" cy="21.35" r="0.35" fill="#F1F1F1"/>
<circle opacity="0.67" cx="21.3501" cy="21.35" r="0.35" fill="#F1F1F1"/>
<circle opacity="0.28" cx="23.45" cy="21.35" r="0.35" fill="#F1F1F1"/>
<circle opacity="0.74" cx="25.55" cy="21.35" r="0.35" fill="#F1F1F1"/>
<circle opacity="0.72" cx="0.35" cy="23.4501" r="0.35" fill="#F1F1F1"/>
<circle opacity="0.58" cx="2.45004" cy="23.4501" r="0.35" fill="#F1F1F1"/>
<circle opacity="0.62" cx="4.55001" cy="23.4501" r="0.35" fill="#F1F1F1"/>
<circle opacity="0.63" cx="6.65005" cy="23.4501" r="0.35" fill="#F1F1F1"/>
<circle opacity="0.6" cx="8.75002" cy="23.4501" r="0.35" fill="#F1F1F1"/>
<circle opacity="0.49" cx="10.85" cy="23.4501" r="0.35" fill="#F1F1F1"/>
<circle opacity="0.45" cx="12.95" cy="23.4501" r="0.35" fill="#F1F1F1"/>
<circle opacity="0.26" cx="27.65" cy="23.4501" r="0.35" fill="#F1F1F1"/>
<circle opacity="0.57" cx="15.05" cy="25.55" r="0.35" fill="#F1F1F1"/>
<circle opacity="0.21" cx="17.15" cy="23.4501" r="0.35" fill="#F1F1F1"/>
<circle opacity="0.67" cx="19.25" cy="23.4501" r="0.35" fill="#F1F1F1"/>
<circle opacity="0.3" cx="21.35" cy="23.4501" r="0.35" fill="#F1F1F1"/>
<circle opacity="0.28" cx="23.45" cy="23.4501" r="0.35" fill="#F1F1F1"/>
<circle opacity="0.29" cx="25.55" cy="23.4501" r="0.35" fill="#F1F1F1"/>
<circle opacity="0.4" cx="0.35" cy="25.55" r="0.35" fill="#F1F1F1"/>
<circle opacity="0.28" cx="2.45004" cy="25.55" r="0.35" fill="#F1F1F1"/>
<circle opacity="0.29" cx="4.55001" cy="25.55" r="0.35" fill="#F1F1F1"/>
<circle opacity="0.41" cx="6.64999" cy="25.55" r="0.35" fill="#F1F1F1"/>
<circle opacity="0.88" cx="8.75002" cy="25.55" r="0.35" fill="#F1F1F1"/>
<circle opacity="0.88" cx="10.85" cy="25.55" r="0.35" fill="#F1F1F1"/>
<circle opacity="0.83" cx="12.95" cy="25.55" r="0.35" fill="#F1F1F1"/>
<circle opacity="0.56" cx="15.05" cy="27.65" r="0.35" fill="#F1F1F1"/>
<circle opacity="0.57" cx="27.65" cy="25.55" r="0.35" fill="#F1F1F1"/>
<circle opacity="0.67" cx="17.15" cy="25.55" r="0.35" fill="#F1F1F1"/>
<circle opacity="0.9" cx="19.25" cy="25.55" r="0.35" fill="#F1F1F1"/>
<circle opacity="0.47" cx="21.3501" cy="25.55" r="0.35" fill="#F1F1F1"/>
<circle opacity="0.4" cx="23.45" cy="25.55" r="0.35" fill="#F1F1F1"/>
<circle opacity="0.58" cx="25.55" cy="25.55" r="0.35" fill="#F1F1F1"/>
<circle opacity="0.59" cx="0.35" cy="27.65" r="0.35" fill="#F1F1F1"/>
<circle opacity="0.66" cx="2.45004" cy="27.65" r="0.35" fill="#F1F1F1"/>
<circle opacity="0.73" cx="4.55001" cy="27.65" r="0.35" fill="#F1F1F1"/>
<circle opacity="0.84" cx="6.64999" cy="27.65" r="0.35" fill="#F1F1F1"/>
<circle opacity="0.62" cx="8.75002" cy="27.65" r="0.35" fill="#F1F1F1"/>
<circle opacity="0.77" cx="10.85" cy="27.65" r="0.35" fill="#F1F1F1"/>
<circle opacity="0.41" cx="12.95" cy="27.65" r="0.35" fill="#F1F1F1"/>
<circle opacity="0.56" cx="27.65" cy="27.65" r="0.35" fill="#F1F1F1"/>
<circle opacity="0.39" cx="17.15" cy="27.65" r="0.35" fill="#F1F1F1"/>
<circle opacity="0.5" cx="19.25" cy="27.65" r="0.35" fill="#F1F1F1"/>
<circle opacity="0.47" cx="21.3501" cy="27.65" r="0.35" fill="#F1F1F1"/>
<circle opacity="0.73" cx="23.45" cy="27.65" r="0.35" fill="#F1F1F1"/>
<circle opacity="0.63" cx="25.55" cy="27.65" r="0.35" fill="#F1F1F1"/>
</svg>
