<?xml version="1.0" standalone="no"?>
<!DOCTYPE svg PUBLIC "-//W3C//DTD SVG 1.1//EN" "http://www.w3.org/Graphics/SVG/1.1/DTD/svg11.dtd" >
<svg xmlns="http://www.w3.org/2000/svg">
<metadata>Generated by IcoMoon</metadata>
<defs>
<font id="icomoon" horiz-adv-x="1024">
<font-face units-per-em="1024" ascent="960" descent="-64" />
<missing-glyph horiz-adv-x="1024" />
<glyph unicode="&#x20;" horiz-adv-x="512" d="" />
<glyph unicode="&#xe900;" glyph-name="categories" d="M242.527 474.946c-133.943 0-242.527 108.582-242.527 242.527s108.584 242.527 242.527 242.527c133.944 0 242.527-108.584 242.527-242.527s-108.582-242.527-242.527-242.527zM242.527-64.001c-133.943 0-242.527 108.581-242.527 242.527s108.584 242.527 242.527 242.527c133.944 0 242.527-108.581 242.527-242.527s-108.582-242.527-242.527-242.527zM781.473 474.946c-133.939 0-242.527 108.582-242.527 242.527s108.587 242.527 242.527 242.527c133.945 0 242.527-108.584 242.527-242.527s-108.581-242.527-242.527-242.527zM781.473-64.001c-133.939 0-242.527 108.581-242.527 242.527s108.587 242.527 242.527 242.527c133.945 0 242.527-108.581 242.527-242.527s-108.581-242.527-242.527-242.527zM242.527 582.736c74.413 0 134.737 60.323 134.737 134.737s-60.325 134.736-134.737 134.736c-74.413 0-134.736-60.323-134.736-134.736s60.323-134.737 134.736-134.737zM242.527 43.791c74.413 0 134.737 60.321 134.737 134.735s-60.325 134.735-134.737 134.735c-74.413 0-134.736-60.321-134.736-134.735s60.323-134.735 134.736-134.735zM781.473 582.736c74.414 0 134.741 60.323 134.741 134.737s-60.327 134.736-134.741 134.736c-74.408 0-134.735-60.323-134.735-134.736s60.327-134.737 134.735-134.737zM781.473 43.791c74.414 0 134.741 60.321 134.741 134.735s-60.327 134.735-134.741 134.735c-74.408 0-134.735-60.321-134.735-134.735s60.327-134.735 134.735-134.735z" />
<glyph unicode="&#xe901;" glyph-name="arrow-down" d="M511.998 362.665l398.225 398.227 113.777-113.779-512.002-512.004-511.998 512.004 113.777 113.779 398.221-398.227z" />
<glyph unicode="&#xe902;" glyph-name="bar-chart" d="M8.002 421.475h106.105v-477.475h-106.105v477.475zM167.16 315.371h106.105v-371.371h-106.105v371.371zM750.738 633.685h106.101v-689.686h-106.101v689.686zM909.896 527.581h106.101v-583.581h-106.101v583.581zM379.369 952h106.106v-1008h-106.106v1008zM538.525 845.895h106.107v-901.895h-106.107v901.895z" />
<glyph unicode="&#xe903;" glyph-name="dropbox" d="M0 394l301.2-196.4 210.8 175.6-303.6 187.6zM301.2 924l-301.2-196.4 208.4-166.8 303.6 187.6zM1024 727.6l-301.2 196.4-210.8-175.6 303.6-187.6zM512 373.2l210.8-175.6 301.2 196.4-208.4 166.8zM512.8 335.6l-211.6-175.6-90.4 59.2v-66.4l302-180.8 301.6 180.8v66.4l-90.4-59.2z" />
<glyph unicode="&#xe904;" glyph-name="home" d="M565.806 51.617h322.85v485.446l-376.656 292.956-376.657-292.956v-485.446h322.85v322.85h107.614v-322.85zM996.275-2.196c0-29.714-24.092-53.806-53.806-53.806h-860.936c-29.717 0-53.808 24.092-53.808 53.806v565.578c0 16.605 7.666 32.28 20.773 42.474l430.469 334.809c19.431 15.112 46.638 15.112 66.067 0l430.462-334.809c13.108-10.194 20.778-25.868 20.778-42.474v-565.578z" />
<glyph unicode="&#xe905;" glyph-name="Logo" horiz-adv-x="894" d="M549.852 620.322c0.641-2.573 3.205-4.074 5.556-3.43l114.115 26.375c2.565 0.644 4.061 3.217 3.42 5.576l-8.975 39.455c-0.641 2.574-3.205 4.075-5.556 3.431l-44.877-10.293c7.48 19.085 14.959 38.169 22.439 57.253 2.992 7.72 6.198 15.654 9.189 23.373 1.282 3.431-1.71 10.078-2.35 13.295l-3.633 16.082c-0.641 2.573-3.206 4.074-5.556 3.431l-107.491-24.874c-2.565-0.644-4.060-3.217-3.42-5.575l8.975-39.456c0.641-2.573 3.205-4.074 5.556-3.431l39.321 9.221c-7.693-19.085-15.173-38.169-22.866-57.253-3.205-8.149-6.624-16.512-9.83-24.66-1.282-3.217 1.282-9.006 1.923-12.008l3.847-16.297 0.214-0.215zM697.306 748.338c45.305 10.507 90.822 21.014 136.124 31.521 2.568 0.644 4.063 3.217 3.421 5.575l-10.898 47.176c-0.642 2.573-3.202 4.074-5.559 3.43l-55.131-12.651c8.975 22.73 17.95 45.459 26.926 68.189 3.847 9.864 7.693 19.513 11.54 29.377 1.496 3.645-1.709 10.722-2.564 14.152l-4.701 20.371c-0.641 2.573-3.205 4.074-5.556 3.431l-128.22-29.806c-2.564-0.643-4.060-3.216-3.419-5.575l10.898-47.175c0.641-2.573 3.206-4.074 5.556-3.43l48.724 11.365c-9.189-22.729-18.165-45.674-27.354-68.404-4.060-10.293-8.12-20.371-12.181-30.664-1.282-3.43 1.282-9.649 2.137-12.866l4.701-20.586c0.641-2.573 3.205-4.074 5.556-3.43zM464.815 467.081c158.965 95.223 291.254-56.388 263.266-262.413-59.475-318.801-458.747-88.856-201.166 56.608-265.234 0.439-192.639-420.603 154.155-303.883 470.337 237.184 30.831 885.536-216.254 509.689zM428.959 461.376c-138.849 262.632-482.363 18.869-415.672-262.413 52.916-172.451 167.712-281.28 366.911-254.737-361.007 123.969-214.505 687.63 48.761 517.15zM450.383 495.823c32.143 47.831 40.015 109.704 17.493 165.653-24.053 60.337-69.534 83.376-73.688 87.105-5.029-1.316-56.414-2.193-104.519-45.418-19.898-17.772-35.204-39.493-45.262-63.847 76.093-14.043 135.131-50.684 174.708-100.27 11.37-12.945 21.429-27.426 29.738-43.443 0.437 0 0.874 0 1.312 0l0.219 0.219z" />
<glyph unicode="&#xe906;" glyph-name="mail" d="M921.601 857.6h-819.201c-56.32 0-101.888-46.080-101.888-102.4l-0.512-614.4c0-56.32 46.080-102.4 102.4-102.4h819.201c56.32 0 102.4 46.080 102.4 102.4v614.4c0 56.32-46.080 102.4-102.4 102.4zM921.601 652.8l-409.6-256-409.6 256v102.4l409.6-256 409.6 256v-102.4z" />
<glyph unicode="&#xe907;" glyph-name="money" d="M512.002-63.999c-282.773 0-512.002 229.226-512.002 512.004 0 282.765 229.23 511.994 512.002 511.994 282.765 0 511.998-229.23 511.998-511.994 0-282.777-229.232-512.004-511.998-512.004zM512.002 38.403c226.215 0 409.596 183.38 409.596 409.602 0 226.211-183.38 409.594-409.596 409.594-226.219 0-409.603-183.384-409.603-409.594 0-226.221 183.384-409.602 409.603-409.602zM332.799 345.603h281.599c14.137 0 25.602 11.459 25.602 25.602 0 14.131-11.465 25.596-25.602 25.596h-204.798c-70.693 0-128.001 57.305-128.001 128.001 0 70.691 57.307 127.997 128.001 127.997h51.199v102.401h102.401v-102.401h127.998v-102.397h-281.598c-14.14 0-25.602-11.464-25.602-25.601 0-14.141 11.461-25.6 25.602-25.6h204.798c70.693 0 128.004-57.311 128.004-127.998 0-70.699-57.311-128.004-128.004-128.004h-51.198v-102.396h-102.401v102.396h-128.001v102.402z" />
<glyph unicode="&#xe908;" glyph-name="post" d="M558.546 471.273h325.819v-69.818h-325.819v69.818zM558.546 587.638h325.819v-69.818h-325.819v69.818zM558.546 354.909h325.819v-69.818h-325.819v69.818zM930.909 843.637h-837.819c-51.2 0-93.091-41.891-93.091-93.091v-605.092c0-51.2 41.891-93.091 93.091-93.091h837.819c51.2 0 93.091 41.891 93.091 93.091v605.092c0 51.2-41.891 93.091-93.091 93.091zM930.909 145.455h-418.909v605.092h418.909v-605.092z" />
<glyph unicode="&#xe909;" glyph-name="pushpin-line" d="M568.888 959.997l455.113-455.112-75.851-75.851-37.922 37.926-227.56-227.556-37.929-189.632-75.851-75.851-227.554 227.56-265.481-265.482-75.852 75.851 265.481 265.482-227.555 227.553 75.852 75.853 189.63 37.926 227.556 227.556-37.929 37.926 75.851 75.852zM606.816 770.367l-250.522-250.522-151.352-30.268 348.634-348.642 30.269 151.355 250.531 250.522-227.56 227.555z" />
<glyph unicode="&#xe90a;" glyph-name="t-shirt" d="M1017.42 589.16l-143.089 183.642c-34.794 44.653-87.214 70.26-143.823 70.26h-94.381c-13.082 0-24.77-8.172-29.261-20.462-14.497-39.655-52.621-66.299-94.866-66.299s-80.364 26.644-94.866 66.299c-4.491 12.289-16.18 20.462-29.261 20.462h-94.385c-56.604 0-109.029-25.607-143.823-70.265l-143.084-183.638c-6.218-7.981-8.177-18.481-5.248-28.166s10.375-17.346 19.976-20.542l198.331-66.076v-390.28c0-17.208 13.95-31.157 31.157-31.157h522.405c17.208 0 31.157 13.95 31.157 31.157v390.28l198.331 66.076c9.601 3.196 17.048 10.856 19.976 20.542s0.97 20.186-5.248 28.166zM804.361 540.056v45.802c0 17.208-13.95 31.157-31.157 31.157s-31.157-13.95-31.157-31.157v-470.604h-460.095v470.604c0 17.208-13.95 31.157-31.157 31.157s-31.157-13.95-31.157-31.157v-45.802l-136.808 45.579 115.99 148.862c22.905 29.395 57.405 46.251 94.67 46.251h74.248c28.019-52.665 83.507-86.756 144.259-86.756s116.24 34.095 144.264 86.756h74.248c37.26 0 71.765-16.856 94.67-46.247l115.995-148.866-136.813-45.579z" />
<glyph unicode="&#xe90b;" glyph-name="team-line" d="M511.996 499.2c141.385 0 256.002-114.614 256.002-256.001v-307.2h-102.402v307.2c0 81.802-63.941 148.673-144.575 153.342l-9.025 0.258c-81.802 0-148.667-63.941-153.338-144.575l-0.26-9.025v-307.2h-102.401v307.2c0 141.385 114.615 256.001 255.998 256.001zM179.198 345.602c14.278 0 28.165-1.672 41.478-4.823-8.606-25.59-13.895-52.624-15.419-80.646l-0.458-16.933 0.036-4.381c-5.792 2.046-11.903 3.422-18.239 4.031l-7.397 0.35c-39.92 0-72.726-30.456-76.448-69.403l-0.352-7.397v-230.4h-102.4v230.4c0 98.968 80.23 179.202 179.199 179.202zM844.798 345.602c98.968 0 179.202-80.234 179.202-179.202v-230.4h-102.402v230.4c0 39.924-30.462 72.726-69.403 76.45l-7.397 0.35c-8.97 0-17.584-1.536-25.584-4.362l-0.018 4.362c0 34.087-5.548 66.865-15.797 97.505 13.234 3.226 27.12 4.897 41.399 4.897zM179.198 652.8c70.693 0 128-57.307 128-127.999s-57.307-128-128-128c-70.692 0-127.999 57.308-127.999 128s57.307 127.999 127.999 127.999zM844.798 652.8c70.693 0 127.998-57.307 127.998-127.999s-57.305-128-127.998-128c-70.693 0-127.998 57.308-127.998 128s57.305 127.999 127.998 127.999zM179.198 550.401c-14.138 0-25.6-11.464-25.6-25.601s11.461-25.601 25.6-25.601c14.138 0 25.601 11.464 25.601 25.601s-11.461 25.601-25.601 25.601zM844.798 550.401c-14.137 0-25.602-11.464-25.602-25.601s11.465-25.601 25.602-25.601c14.137 0 25.602 11.464 25.602 25.601s-11.465 25.601-25.602 25.601zM511.996 960c113.105 0 204.804-91.692 204.804-204.799s-91.699-204.799-204.804-204.799c-113.107 0-204.798 91.692-204.798 204.799s91.692 204.799 204.798 204.799zM511.996 857.6c-56.555 0-102.398-45.846-102.398-102.401s45.845-102.401 102.398-102.401c56.556 0 102.402 45.846 102.402 102.401s-45.846 102.401-102.402 102.401z" />
<glyph unicode="&#xe90c;" glyph-name="add" d="M438.855 521.141v438.855h146.29v-438.855h438.855v-146.283h-438.855v-438.855h-146.29v438.855h-438.855v146.283h438.855z" />
<glyph unicode="&#xe90d;" glyph-name="arrow-right" d="M778.981 511.993l-343.296 343.296 90.508 90.51 497.808-497.805-497.808-497.794-90.508 90.508 343.296 343.286h-778.98v127.999h778.98z" />
<glyph unicode="&#xe90e;" glyph-name="arrow-right-up" d="M853.078 668.272l-733.155-733.161-120.471 120.469 733.157 733.161h-646.198v170.37h937.033v-937.035h-170.366v646.194z" />
<glyph unicode="&#xe90f;" glyph-name="checkbox-circle" d="M512.001-64c-282.77 0-512.002 229.232-512.002 511.998 0 282.77 229.23 512.002 512.002 512.002 282.766 0 511.998-229.23 511.998-512.002 0-282.766-229.232-511.998-511.998-511.998zM512.001 38.402c226.216 0 409.596 183.38 409.596 409.596s-183.38 409.602-409.596 409.602c-226.217 0-409.602-183.384-409.602-409.602 0-226.216 183.384-409.596 409.602-409.596zM460.933 243.2l-217.222 217.22 72.408 72.412 144.814-144.818 289.633 289.631 72.407-72.408-362.041-362.038z" />
<glyph unicode="&#xe910;" glyph-name="close-circle" d="M512.006-64.004c-282.771 0-512.002 229.232-512.002 511.998 0 282.771 229.23 512.002 512.002 512.002 282.766 0 511.998-229.23 511.998-512.002 0-282.766-229.232-511.998-511.998-511.998zM512.006 38.398c226.216 0 409.596 183.38 409.596 409.596s-183.38 409.602-409.596 409.602c-226.217 0-409.602-183.384-409.602-409.602 0-226.216 183.384-409.596 409.602-409.596zM512.006 520.402l144.814 144.816 72.407-72.408-144.814-144.816 144.814-144.814-72.407-72.407-144.814 144.814-144.816-144.814-72.408 72.407 144.816 144.814-144.816 144.816 72.408 72.408 144.816-144.816z" />
<glyph unicode="&#xe911;" glyph-name="close-fill" d="M512.002 561.773l398.223 398.224 113.777-113.777-398.224-398.226 398.224-398.215-113.777-113.777-398.223 398.215-398.223-398.215-113.778 113.777 398.224 398.215-398.224 398.226 113.778 113.777 398.223-398.224z" />
<glyph unicode="&#xe912;" glyph-name="delete" d="M255.999 857.597v102.4h512v-102.4h256.001v-102.4h-102.402v-767.998c0-28.274-22.924-51.198-51.198-51.198h-716.801c-28.277 0-51.2 22.924-51.2 51.198v767.998h-102.399v102.4h255.999zM204.799 755.197v-716.8h614.397v716.8h-614.397zM358.398 601.597h102.4v-409.601h-102.4v409.601zM563.2 601.597h102.396v-409.601h-102.396v409.601z" />
<glyph unicode="&#xe913;" glyph-name="edit" d="M113.779 50.611h80.452l529.847 529.852-80.452 80.452-529.847-529.852v-80.452zM1024.001-63.162h-1024v241.364l764.298 764.297c22.22 22.216 58.241 22.216 80.452 0l160.913-160.907c22.213-22.216 22.213-58.238 0-80.452l-650.526-650.529h668.862v-113.772zM724.080 741.368l80.452-80.452 80.452 80.452-80.452 80.452-80.452-80.452z" />
<glyph unicode="&#xe914;" glyph-name="eye" d="M512.002 873.931c255.184 0 467.485-183.612 511.998-425.931-44.513-242.315-256.814-425.931-511.998-425.931-255.19 0-467.492 183.616-512.002 425.931 44.51 242.319 256.812 425.931 512.002 425.931zM512.002 116.722c200.449 0 371.98 139.512 415.396 331.278-43.416 191.762-214.948 331.279-415.396 331.279-200.459 0-371.986-139.518-415.405-331.279 43.418-191.765 214.944-331.278 415.405-331.278zM512.002 235.035c-117.621 0-212.97 95.346-212.97 212.965s95.348 212.965 212.97 212.965c117.613 0 212.965-95.348 212.965-212.965s-95.352-212.965-212.965-212.965zM512.002 329.688c65.338 0 118.312 52.968 118.312 118.312s-52.974 118.313-118.312 118.313c-65.345 0-118.319-52.972-118.319-118.313 0-65.344 52.974-118.312 118.319-118.312z" />
<glyph unicode="&#xe915;" glyph-name="fast-delivery" d="M730.001 744.969c88.781-20.602 122.739-72.515 165.321-143.968h-165.321v143.968zM211.156 595c17.383 0 30-8.391 30-28 0-16.539-13.383-29.953-29.914-30h-181.242c-16.57 0-30-13.439-30-30.002 0-16.567 13.43-29.999 30-29.999h270c16.727 0 30.117-13.423 30.117-29.999 0-16.572-13.43-29.999-30-29.999h-270.117c-16.57 0-30-13.431-30-29.999 0-16.572 13.43-30.003 30-30.003h66v-90.001c0-16.567 13.43-29.999 30-29.999h60.305c10.75-52.954 57.539-91.998 112.695-91.998s101.946 39.044 112.695 91.998h304.61c10.748-52.954 57.54-91.998 112.695-91.998s101.943 39.044 112.695 91.998h52.305c16.567 0 29.999 13.431 29.999 29.999v180.002c0 88.023-92.843 93.867-92.928 94h-231.074c-16.567 0-29.999 13.43-29.999 30v180h-543.999c-16.57 0-30-13.43-30-30v-66h-36c-16.57 0-30-13.43-30-30s13.43-30 30-30h151.156zM867.891 298.891c21.474-21.478 21.474-56.311 0-77.79-34.547-34.547-93.892-9.967-93.892 38.899 0 48.858 59.345 73.438 93.892 38.891zM337.891 298.891c21.477-21.478 21.477-56.311 0-77.79-34.547-34.547-93.891-9.967-93.891 38.899 0 48.858 59.344 73.438 93.891 38.891z" />
<glyph unicode="&#xe916;" glyph-name="favorite" d="M512-21.76l-74.24 67.584c-263.679 239.103-437.76 396.8-437.76 590.336 0 157.695 123.903 281.6 281.6 281.6 89.088 0 174.591-41.472 230.4-107.008 55.808 65.536 141.312 107.008 230.4 107.008 157.695 0 281.6-123.903 281.6-281.6 0-193.536-174.080-351.231-437.76-590.847l-74.24-67.072z" />
<glyph unicode="&#xe917;" glyph-name="filter-3-fill" d="M398.221 106.667h227.559v113.78h-227.559v-113.78zM0 789.333v-113.779h1024v113.779h-1024zM170.667 391.113h682.667v113.775h-682.667v-113.775z" />
<glyph unicode="&#xe918;" glyph-name="filter" d="M1024 959.999v-113.777h-56.887l-284.448-426.668v-483.553h-341.333v483.553l-284.445 426.668h-56.888v113.777h1024zM193.632 846.222l261.479-392.213v-404.235h113.775v404.235l261.481 392.213h-636.736z" />
<glyph unicode="&#xe919;" glyph-name="global" d="M511.998-63.999c-282.767 0-511.997 229.232-511.997 511.997 0 282.77 229.23 512.001 511.997 512.001 282.771 0 512.003-229.23 512.003-512.001 0-282.765-229.232-511.997-512.003-511.997zM394.752 55.427c-49.284 104.528-79.497 219.813-86.154 341.372h-203.029c20.281-162.638 135.909-295.667 289.184-341.372zM411.171 396.8c7.7-124.865 43.372-242.16 100.826-345.704 57.458 103.544 93.131 220.839 100.829 345.704h-201.656zM918.428 396.8h-203.028c-6.654-121.559-36.87-236.845-86.151-341.372 153.269 45.706 268.898 178.735 289.179 341.372zM105.568 499.198h203.029c6.656 121.561 36.87 236.847 86.154 341.372-153.273-45.709-268.903-178.735-289.184-341.372zM411.171 499.198h201.656c-7.698 124.866-43.37 242.163-100.829 345.703-57.456-103.539-93.126-220.837-100.826-345.703zM629.249 840.571c49.282-104.526 79.497-219.812 86.151-341.372h203.028c-20.281 162.637-135.912 295.663-289.179 341.372z" />
<glyph unicode="&#xe91a;" glyph-name="logout-circle" d="M232.728 494.547h372.363v-93.091h-372.363v-139.637l-232.728 186.18 232.728 186.184v-139.637zM186.148 168.726h126.095c65.642-57.933 151.867-93.088 246.303-93.088 205.651 0 372.366 166.71 372.366 372.36 0 205.653-166.715 372.366-372.366 372.366-94.436 0-180.66-35.154-246.303-93.091h-126.095c84.918 113.054 220.118 186.182 372.398 186.182 257.060 0 465.454-208.391 465.454-465.457 0-257.060-208.394-465.454-465.454-465.454-152.28 0-287.48 73.131-372.398 186.18z" />
<glyph unicode="&#xe91b;" glyph-name="menu" d="M0 106.667h1024v113.777h-1024v-113.777zM0 391.111h1024v113.777h-1024v-113.777zM0 789.333v-113.777h1024v113.777h-1024z" />
<glyph unicode="&#xe91c;" glyph-name="contact-support" d="M512.001 960c-240.128 0-435.2-195.072-435.2-435.2s195.072-435.2 435.2-435.2h25.6v-153.6c248.832 119.808 409.599 358.4 409.599 588.8 0 240.128-195.072 435.2-435.2 435.2zM563.2 217.6h-102.4v102.4h102.4v-102.4zM563.2 396.8h-102.4c0 166.4 153.6 153.6 153.6 255.999 0 56.32-46.080 102.4-102.4 102.4s-102.4-46.080-102.4-102.4h-102.4c0 113.151 91.648 204.8 204.8 204.8s204.8-91.648 204.8-204.8c0-128-153.6-140.799-153.6-255.999z" />
<glyph unicode="&#xe91d;" glyph-name="person" d="M512 447.999c141.439 0 256 114.559 256 256s-114.559 256-256 256c-141.439 0-256-114.559-256-256s114.559-256 256-256zM512 319.999c-170.88 0-511.999-85.759-511.999-256v-127.999h1024v127.999c0 170.239-341.119 256-511.999 256z" />
<glyph unicode="&#xe91e;" glyph-name="search" d="M808.11 223.18l215.887-215.893-71.288-71.288-215.887 215.893c-77.622-62.106-176.065-99.26-283.137-99.26-250.433 0-453.682 203.25-453.682 453.685 0 250.433 203.25 453.682 453.682 453.682 250.435 0 453.685-203.25 453.685-453.682 0-107.071-37.154-205.513-99.26-283.136zM706.976 260.582c61.641 63.527 99.574 150.181 99.574 245.734 0 194.957-157.905 352.863-352.864 352.863s-352.864-157.907-352.864-352.863c0-194.958 157.907-352.863 352.864-352.863 95.554 0 182.208 37.934 245.735 99.574l7.555 7.555z" />
<glyph unicode="&#xe91f;" glyph-name="settings" d="M0 448.003c0 44.261 5.616 87.212 16.177 128.177 55.822-2.894 111.234 24.891 141.099 76.62 29.843 51.689 26.227 113.515-4.126 160.399 61.047 59.992 137.067 104.795 221.942 128.29 25.404-49.794 77.172-83.89 136.906-83.89 59.738 0 111.507 34.097 136.912 83.89 84.873-23.495 160.892-68.299 221.939-128.29-30.357-46.883-33.969-108.71-4.129-160.399 29.866-51.729 85.279-79.514 141.103-76.62 10.555-40.965 16.177-83.916 16.177-128.177s-5.622-87.214-16.177-128.182c-55.824 2.894-111.236-24.889-141.103-76.622-29.842-51.689-26.228-113.51 4.129-160.395-61.047-59.99-137.066-104.798-221.939-128.293-25.405 49.791-77.175 83.89-136.912 83.89-59.734 0-111.502-34.099-136.906-83.89-84.874 23.495-160.895 68.303-221.942 128.293 30.353 46.884 33.969 108.705 4.126 160.395-29.866 51.733-85.278 79.516-141.099 76.622-10.56 40.967-16.177 83.921-16.177 128.182zM245.956 294.403c32.261-55.879 41.509-120.12 28.893-180.417 20.879-14.863 43.103-27.734 66.392-38.425 45.919 41.104 106.204 65.243 170.756 65.243 64.555 0 124.839-24.14 170.759-65.243 23.286 10.691 45.508 23.562 66.392 38.425-12.62 60.297-3.373 124.538 28.895 180.417 32.256 55.873 83.263 95.999 141.785 115.224 1.173 12.687 1.769 25.48 1.769 38.376 0 12.883-0.596 25.688-1.769 38.367-58.522 19.226-109.529 59.351-141.785 115.229-32.268 55.878-41.514 120.117-28.895 180.416-20.883 14.857-43.106 27.729-66.392 38.427-45.92-41.11-106.205-65.244-170.759-65.244-64.552 0-124.836 24.135-170.756 65.244-23.287-10.699-45.512-23.571-66.392-38.427 12.615-60.3 3.368-124.538-28.893-180.416s-83.267-96.003-141.79-115.229c-1.174-12.679-1.767-25.483-1.767-38.367 0-12.896 0.593-25.688 1.767-38.376 58.523-19.225 109.529-59.351 141.79-115.224zM511.996 294.403c-84.832 0-153.598 68.763-153.598 153.6 0 84.827 68.767 153.596 153.598 153.596 84.835 0 153.6-68.77 153.6-153.596 0-84.835-68.763-153.6-153.6-153.6zM511.996 396.799c28.281 0 51.204 22.923 51.204 51.204 0 28.274-22.923 51.197-51.204 51.197-28.277 0-51.199-22.923-51.199-51.197 0-28.281 22.922-51.204 51.199-51.204z" />
<glyph unicode="&#xe920;" glyph-name="shopping-cart" d="M307.201 140.798c-56.319 0-101.888-46.080-101.888-102.399s45.568-102.399 101.888-102.399c56.319 0 102.399 46.080 102.399 102.399s-46.080 102.399-102.399 102.399zM0.002 959.997v-102.399h102.399l184.32-388.607-69.12-125.439c-8.192-14.336-12.8-31.232-12.8-49.152 0-56.319 46.080-102.399 102.399-102.399h614.399v102.399h-592.895c-7.168 0-12.8 5.632-12.8 12.8l1.536 6.144 46.080 83.456h381.44c38.4 0 72.192 20.992 89.6 52.736l183.296 332.288c4.096 7.168 6.144 15.872 6.144 24.576 0 28.16-23.040 51.2-51.2 51.2h-757.247l-48.128 102.399h-167.424zM819.199 140.798c-56.319 0-101.888-46.080-101.888-102.399s45.568-102.399 101.888-102.399c56.319 0 102.399 46.080 102.399 102.399s-46.080 102.399-102.399 102.399z" />
<glyph unicode="&#xe921;" glyph-name="sidebar-fold" d="M113.777 846.223h455.112v-796.448h-455.112v796.448zM910.225 49.775h-227.559v796.448h227.559v-796.448zM56.889 960c-31.419 0-56.889-25.471-56.889-56.889v-910.219c0-31.42 25.471-56.892 56.889-56.892h910.219c31.42 0 56.892 25.472 56.892 56.892v910.219c0 31.419-25.472 56.889-56.892 56.889h-910.219zM227.556 448l227.555 199.111v-398.219l-227.555 199.108z" />
<glyph unicode="&#xe922;" glyph-name="swap" d="M424.961 279.039l-117.76-117.76v696.322c0 30.72-20.48 51.201-51.201 51.201s-51.201-20.48-51.201-51.201v-696.322l-117.76 117.76c-20.48 20.48-51.201 20.48-71.68 0s-20.48-51.201 0-71.68l204.801-204.801c5.12-5.12 10.24-10.24 15.36-10.24 5.12-5.12 15.36-5.12 20.48-5.12s15.36 0 20.48 5.12c5.12 0 10.24 5.12 15.36 10.24l204.801 204.801c20.48 20.48 20.48 51.201 0 71.68s-51.201 20.48-71.68 0zM1008.642 688.64l-204.801 204.801c-5.12 5.12-10.24 10.24-15.36 10.24-5.12 5.12-15.36 5.12-20.48 5.12s-15.36 0-20.48-5.12c-5.12 0-10.24-5.12-15.36-10.24l-204.801-204.801c-20.48-20.48-20.48-51.201 0-71.68s51.201-20.48 71.68 0l117.76 117.76v-696.322c0-30.72 20.48-51.201 51.201-51.201s51.201 20.48 51.201 51.201v696.322l117.76-117.76c20.48-20.48 51.201-20.48 71.68 0s20.48 51.201 0 71.68z" />
<glyph unicode="&#xe923;" glyph-name="upload-cloud" d="M511.999 420.733l197.475-197.475-65.825-65.825-85.104 85.067v-259.957h-93.091v260.051l-85.105-85.16-65.826 65.825 197.476 197.475zM511.999 913.455c167.256 0 305.078-126.028 323.682-288.301 108.53-29.677 188.319-129.008 188.319-246.973 0-133.53-102.233-243.182-232.7-254.958l0.014 93.706c78.927 11.311 139.595 79.197 139.595 161.252 0 89.973-72.937 162.909-162.909 162.909-9.719 0-19.237-0.852-28.453-2.513 3.393 15.816 5.181 32.229 5.181 49.059 0 128.532-104.197 232.728-232.728 232.728s-232.728-104.196-232.728-232.728c0-16.83 1.787-33.243 5.216-49.027-9.251 1.629-18.77 2.481-28.488 2.481-89.973 0-162.909-72.937-162.909-162.909 0-79.141 56.432-145.101 131.252-159.837l8.387-1.425 0.016-93.696c-130.487 11.748-232.746 121.41-232.746 254.958 0 117.965 79.79 217.297 188.346 246.966 18.578 162.281 156.4 288.308 323.656 288.308z" />
<glyph unicode="&#xe924;" glyph-name="visibility-off" d="M512.232 704.117c128.524 0 232.833-104.309 232.833-232.833 0-30.268-6.054-58.674-16.764-85.217l135.975-135.975c70.316 58.674 125.73 134.578 159.724 221.192-80.56 204.428-279.4 349.25-512.232 349.25-65.193 0-127.593-11.642-185.335-32.597l100.584-100.584c26.543 10.71 54.949 16.764 85.217 16.764zM46.566 831.244l127.593-127.593c-77.301-60.071-137.837-140.166-174.159-232.368 80.56-204.428 279.4-349.25 512.232-349.25 72.178 0 141.097 13.97 203.962 39.116l19.558-19.558 136.44-135.975 59.14 59.14-825.626 825.626-59.14-59.14zM304.080 573.731l72.178-72.178c-2.328-9.779-3.725-20.024-3.725-30.268 0-77.301 62.399-139.7 139.7-139.7 10.245 0 20.489 1.397 30.268 3.725l72.178-72.178c-31.2-15.367-65.659-24.68-102.447-24.68-128.524 0-232.833 104.309-232.833 232.833 0 36.788 9.313 71.247 24.68 102.447zM504.781 610.053l146.685-146.685 0.931 7.451c0 77.301-62.399 139.7-139.7 139.7l-7.916-0.466z" />
<glyph unicode="&#xe925;" glyph-name="walmart" horiz-adv-x="914" d="M457.029 615.227c23.843 0 43.922 12.458 46.536 28.472l23.64 267.919c0 26.535-31.218 48.25-70.175 48.25-39.167 0-70.175-21.715-70.175-48.25l23.843-267.919c2.512-16.013 22.488-28.472 46.332-28.472zM312.014 531.395c11.817 20.93 11.133 44.161-1.625 54.527l-220.664 154.421c-22.95 13.394-57.309-2.566-76.968-36.368-19.611-33.754-15.636-71.638 6.847-84.774l244.297-113.347c15.636-5.857 36.080 5.024 48.112 25.75zM602.014 531.611c12.494-20.72 32.938-31.607 48.16-26.056l244.297 113.659c22.692 13.394 26.092 50.912 6.901 84.666-19.605 33.802-54.174 49.659-77.076 36.523l-220.712-154.265c-12.236-10.516-13.124-33.856-1.313-54.737zM457.029 280.557c23.843 0 43.922-12.452 46.536-28.466l23.64-267.925c0-26.529-31.218-48.034-70.175-48.034-39.167 0-70.175 21.505-70.175 48.034l23.843 267.925c2.512 16.013 22.488 28.466 46.332 28.466zM602.014 364.161c12.494 20.774 32.938 31.865 48.16 25.846l244.297-113.449c22.692-13.13 26.092-50.966 6.901-84.768-19.605-33.544-54.174-49.503-77.076-36.374l-220.712 154.475c-12.236 10.414-13.124 33.652-1.313 54.27zM312.014 364.389c11.817-20.876 11.133-44.060-1.625-54.527l-220.664-154.212c-22.95-13.4-57.309 2.614-76.968 36.158-19.611 33.754-15.636 71.638 6.847 84.774l244.297 113.449c15.636 5.965 36.080-5.024 48.112-25.642z" />
<glyph unicode="&#xe926;" glyph-name="amazon" d="M719.186 172.87c26.284 23.578 75.288 65.272 103.417 88.85 9.066 9.058 7.255 23.58 0 35.354-24.505 33.542-54.445 56.212-54.445 118.767v215.736c0 88.834 0 168.612-62.6 229.338-51.69 49.86-129.727 67.084-195.050 67.084-127.011 0-269.434-48.048-299.376-205.776-3.626-16.318 9.080-26.28 20.862-28.996l129.734-14.506c11.798 0.906 19.955 14.506 22.69 26.28 10.876 54.388 56.24 80.684 107.95 80.684 88.026 0 83.462-87.022 83.462-149.576-78.026-9.058-171.459-14.505-244.949-46.236-83.462-36.257-142.419-110.586-142.419-219.375 0-139.6 87.994-210.305 201.394-210.305 95.246 0 146.956 23.581 220.448 98.813 24.5-35.352 37.22-59.835 78.041-91.566 9.966-7.247 22.656-1.82 30.842 5.43zM466.049 295.26c-50.801 0-81.633 38.070-81.633 96.098 0 114.208 94.338 138.692 191.412 138.692 0-58.932 4.562-120.578-25.378-172.234-19.080-34.447-43.566-62.556-84.4-62.556zM909.635 120.328c-126.074-52.586-263.090-77.95-387.372-77.95-184.16 0-361.974 49.845-506.208 133.229-12.704 8.184-21.784-5.434-11.798-14.493 133.358-120.572 310.252-193.095 506.21-193.095 140.64 0 302.999 43.536 415.513 126.921 18.125 13.588 1.812 33.54-16.345 25.387zM841.594 152.064c35.375 4.529 116.137 14.486 130.639-4.529 14.533-18.148-16.313-93.381-29.94-127.827-3.623-9.964 5.435-13.611 14.533-6.341 59.849 50.751 75.296 155.9 63.512 171.33-12.721 14.492-117.957 28.108-181.461-17.242-9.972-7.239-8.153-16.297 2.718-15.392z" />
<glyph unicode="&#xe927;" glyph-name="etsy" d="M904.411 959.999c-244.736-28.113-660.862-13.945-829.729-8.545v-58.272c111.709-21.132 137.127-17.201 139.455-82.272 8.052-177.944 4.096-570.761 0-736.091-0.838-62.231-35.565-60.112-139.455-80.546v-58.272c339.689 10.845 572.821 9.821 842.273 0 3.444 43.055 23.985 215.087 32.364 279.273h-57.364c-64.791-153.274-77.292-205.546-216.090-205.546h-204c-68.562 0-101.181 28.063-101.181 87.455v317.637c152.018 0 201.091-4.545 201.091-4.545 69.586-1.071 80.418-56.806 101.363-148.454h46.546c-4.934 224.954-10.054 140.707 0 372.364h-46.546c-30.161-129.722-32.132-145.085-100.182-147.273 0 0-69.711-6.845-202.272-5.728v374.272c0 14.289 1.133 22.273 24.545 22.273h313.182c79.5 0 98.71-101.769 122.727-197.001h56.090c2.048 41.286 10.247 203.311 17.183 279.273z" />
<glyph unicode="&#xe928;" glyph-name="facebook" d="M389.607 381.996c-3.845 0-88.431 0-126.879 0-20.506 0-26.914 7.69-26.914 26.914 0 51.264 0 103.81 0 155.074 0 20.506 7.69 26.914 26.914 26.914h126.879c0 3.845 0 78.178 0 112.781 0 51.264 8.971 99.965 34.603 144.821 26.914 46.138 65.362 76.896 114.063 94.839 32.040 11.534 64.080 16.661 98.683 16.661h125.597c17.942 0 25.632-7.69 25.632-25.632v-146.103c0-17.942-7.69-25.632-25.632-25.632-34.603 0-69.207 0-103.81-1.282-34.603 0-52.546-16.661-52.546-52.546-1.282-38.448 0-75.615 0-115.344h148.666c20.506 0 28.195-7.69 28.195-28.195v-155.074c0-20.506-6.408-26.914-28.195-26.914-46.138 0-144.821 0-148.666 0v-417.802c0-21.787-6.408-29.477-29.477-29.477-53.827 0-106.373 0-160.2 0-19.224 0-26.914 7.69-26.914 26.914 0 134.567 0 415.238 0 419.083z" />
<glyph unicode="&#xe929;" glyph-name="twitter" d="M607.324 526.405l373.010 433.595h-88.392l-323.884-376.484-258.686 376.484h-298.363l391.183-569.31-391.183-454.69h88.396l342.031 397.579 273.191-397.579h298.363l-405.666 590.405zM486.251 385.674l-354.997 507.783h135.772l624.956-893.939h-135.771l-269.961 386.156z" />
<glyph unicode="&#xe92a;" glyph-name="tiktok" d="M202.632 310.923l2.487-7.021c-0.318 0.804-1.228 3.26-2.487 7.021zM301.044 470.035c4.367 37.727 19.197 58.85 47.144 80.504 39.986 29.326 89.935 12.737 89.935 12.737v98.412c1.635 0.047 3.56 0.073 5.491 0.073 10.874 0 21.551-0.843 31.969-2.466l-1.158 0.149v-126.647s-49.934 16.589-89.92-12.753c-27.931-21.639-42.792-42.777-47.144-80.504-0.136-20.486 3.548-47.265 20.516-70.42q-6.293 3.366-12.828 7.673c-37.378 26.188-44.187 65.477-44.005 93.241zM680.665 843.652c-27.507 31.449-37.909 63.202-41.67 85.508h34.603s-6.899-58.486 43.383-116.002l0.698-0.773c-13.979 9.251-26.116 19.562-36.903 31.146l-0.112 0.121zM847.359 754.49v-124.099s-44.156 1.804-76.834 10.478c-45.627 12.131-74.954 30.737-74.954 30.737s-20.259 13.268-21.896 14.193v-256.265c0-14.269-3.745-49.904-15.164-79.624-14.906-38.88-37.909-64.4-42.14-69.616 0 0-27.977-34.497-77.335-57.728-44.49-20.956-83.552-20.425-95.228-20.956 0 0-67.524-2.79-128.284 38.409-13.665 9.51-25.64 19.608-36.613 30.699l-0.022 0.023 0.303-0.227c60.776-41.2 128.284-38.409 128.284-38.409 11.691 0.531 50.753 0 95.228 20.956 49.312 23.231 77.335 57.728 77.335 57.728 4.185 5.216 27.295 30.737 42.14 69.631 11.388 29.706 15.164 65.355 15.164 79.624v256.235c1.638-0.94 21.881-14.208 21.881-14.208s29.342-18.621 74.969-30.737c32.693-8.674 76.834-10.478 76.834-10.478v97.244c15.103-3.533 27.977-4.488 36.332-3.609zM811.042 758.099v-97.214s-44.141 1.804-76.834 10.478c-45.627 12.131-74.969 30.737-74.969 30.737s-20.243 13.268-21.881 14.208v-256.296c0-14.269-3.745-49.919-15.164-79.624-14.906-38.895-37.909-64.415-42.14-69.631 0 0-27.992-34.497-77.335-57.728-44.475-20.956-83.536-20.425-95.228-20.956 0 0-67.508-2.79-128.284 38.409l-0.303 0.227c-6.253 6.315-12.172 12.999-17.708 20l-0.382 0.501c-19.394 24.671-31.283 53.846-34.27 62.171-0.002 0.016-0.004 0.034-0.004 0.053s0.001 0.037 0.004 0.055v-0.002c-4.807 14.466-14.906 49.206-13.526 82.854 2.441 59.366 22.457 95.804 27.749 104.932 14.556 25.562 32.502 47.315 53.567 65.563l0.309 0.262c18.265 15.488 39.449 28.281 62.496 37.379l1.525 0.53c23.429 10.098 50.667 16.184 79.268 16.677l0.189 0.003v-98.412s-49.949 16.528-89.92-12.737c-27.947-21.654-42.777-42.777-47.144-80.504-0.182-27.765 6.627-67.054 43.975-93.256q6.536-4.322 12.828-7.673c6.601-8.889 14.371-16.441 23.182-22.608l0.322-0.213c36.484-24.095 67.054-25.778 106.145-10.129 26.066 10.463 45.688 34.042 54.786 60.169 5.717 16.316 5.641 32.738 5.641 49.722v483.113h90.982c3.761-22.306 14.163-54.058 41.67-85.508 10.899-11.706 23.035-22.017 36.271-30.803l0.743-0.464c4.003-4.322 24.474-25.687 50.753-38.804 12.225-6.261 26.448-11.572 41.33-15.203l1.356-0.279zM190.334 383.603v-0.076l2.244-6.384c-0.258 0.743-1.092 3.002-2.244 6.46zM358.665 645.008c-24.572-9.628-45.756-22.421-64.348-38.179l0.327 0.27c-21.377-18.547-39.32-40.346-53.223-64.746l-0.638-1.216c-5.292-9.098-25.308-45.567-27.749-104.932-1.38-33.648 8.719-68.388 13.526-82.854-0.002-0.016-0.004-0.034-0.004-0.053s0.001-0.037 0.004-0.055v0.002c3.033-8.249 14.876-37.424 34.27-62.171 5.918-7.502 11.838-14.186 18.109-20.521l-0.019 0.019c-20.871 14.552-38.797 31.398-54.013 50.498l-0.394 0.512c-19.227 24.459-31.085 53.33-34.179 61.852-0.002 0.027-0.003 0.059-0.003 0.091s0.001 0.064 0.003 0.095v-0.004 0.106c-4.822 14.451-14.951 49.206-13.541 82.9 2.441 59.366 22.457 95.804 27.749 104.932 14.537 25.618 32.48 47.418 53.556 65.702l0.306 0.259c18.262 15.495 39.448 28.288 62.498 37.38l1.523 0.529c12.924 5.544 28.070 10.142 43.805 13.060l1.353 0.208c11.603 2.127 24.955 3.343 38.592 3.343 11.298 0 22.402-0.835 33.252-2.446l-1.227 0.15v-28.053c-28.815-0.486-56.081-6.572-80.933-17.213l1.399 0.533zM638.995 929.16h-90.982v-483.128c0-16.983 0-33.36-5.641-49.722-9.189-26.112-28.735-49.691-54.786-60.154-39.107-15.71-69.677-13.966-106.145 10.129-9.154 6.356-16.943 13.884-23.378 22.485l-0.187 0.261c31.070-16.574 58.88-16.286 93.332-2.457 26.036 10.463 45.612 34.042 54.771 60.169 5.732 16.316 5.656 32.738 5.656 49.706v483.219h125.631s-1.41-12.010 1.729-30.509zM811.042 784.984v-26.885c-16.211 3.916-30.408 9.227-43.736 16.001l1.126-0.519c-26.279 13.117-46.749 34.482-50.753 38.804 4.017-2.688 8.741-5.45 13.629-7.937l0.807-0.373c31.95-15.952 63.414-20.714 78.927-19.091zM642.134 13.019c0-0.027 0-0.058 0-0.089 0-3.61 0.554-7.090 1.583-10.36l-0.066 0.244c0.057-0.262 0.13-0.49 0.222-0.708l-0.010 0.026c4.994-15.765 19.495-26.991 36.617-26.991 0.006 0 0.013 0 0.019 0h-0.001v-38.804c-18.894 0-32.42-0.667-53.073 11.509-23.413 13.89-36.605 39.289-36.605 65.659 0 27.204 14.769 54.453 39.805 67.584 18.196 9.523 31.98 9.583 49.919 9.583v-38.789c-21.196 0-38.379-17.183-38.379-38.379v0zM719.166 13.019c0-0.005 0-0.011 0-0.017 0-3.635-0.554-7.14-1.583-10.436l0.067 0.248c0-0.227-0.136-0.455-0.212-0.682-5.004-15.765-19.509-26.989-36.635-26.991v0-38.804c18.879 0 32.42-0.667 52.997 11.509 23.488 13.89 36.711 39.289 36.711 65.659 0 27.204-14.769 54.453-39.805 67.584-18.196 9.523-31.98 9.583-49.904 9.583v-38.789c21.19-0.009 38.364-17.188 38.364-38.379v0zM86.645 125.866h142.098l-13.132-39.092h-37.242v-149.62h-45.688v149.62h-46.037zM463.234 125.866v-39.092h46.037v-149.62h45.749v149.62h37.181l13.132 39.092zM259.662 81.316c12.22 0.009 22.124 9.917 22.124 22.139 0 12.227-9.912 22.139-22.139 22.139s-22.139-9.912-22.139-22.139c0-0.005 0-0.011 0-0.016v0.001c0 0 0 0 0 0 0-12.219 9.905-22.124 22.124-22.124 0.011 0 0.021 0 0.032 0h-0.002zM237.508-62.845h44.854v128.512h-44.854zM443.733 82.438h-52.466l-45.218-45.218v88.495h-44.566l-0.136-188.56h44.99v49.13l13.996 12.753 43.671-61.822h48.099l-63.263 90.406zM874.032 27.591l54.847 54.847h-52.451l-45.233-45.218v88.495h-44.551l-0.212-188.56h45.006v49.13l14.133 12.753 43.671-61.822h48.114zM758.697 13.534c0-42.61-35.013-77.168-78.199-77.168s-78.199 34.558-78.199 77.168 35.013 77.168 78.199 77.168 78.199-34.573 78.199-77.198zM718.862 13.534c0 21.188-17.176 38.364-38.364 38.364s-38.364-17.176-38.364-38.364c0-21.188 17.176-38.364 38.364-38.364v0c21.177 0 38.347 17.159 38.364 38.332v0.002z" />
<glyph unicode="&#xe92b;" glyph-name="verified_user" d="M512 960.001l-418.909-186.182v-279.273c0-258.327 178.735-499.898 418.909-558.545 240.174 58.647 418.909 300.218 418.909 558.545v279.273l-418.909 186.182zM418.909 215.274l-186.182 186.182 65.629 65.629 120.553-120.087 306.734 306.734 65.629-66.095-372.363-372.363z" />
<glyph unicode="&#xe92c;" glyph-name="lock" d="M804.573 618.666h-48.766v97.524c0 134.583-109.223 243.809-243.805 243.809-134.586 0-243.812-109.226-243.812-243.809v-97.524h-48.761c-53.639 0-97.524-43.886-97.524-97.523v-487.618c0-53.64 43.886-97.526 97.524-97.526h585.146c53.634 0 97.52 43.886 97.52 97.526v487.618c0 53.638-43.886 97.523-97.52 97.523zM512.002 179.811c-53.641 0-97.527 43.886-97.527 97.526 0 53.634 43.886 97.52 97.527 97.52 53.634 0 97.52-43.886 97.52-97.52 0-53.64-43.886-97.526-97.52-97.526zM663.162 618.666h-302.324v97.524c0 83.383 67.778 151.161 151.164 151.161 83.383 0 151.16-67.778 151.16-151.161v-97.524z" />
<glyph unicode="&#xe92d;" glyph-name="home_filled" d="M512.001 960l-455.111-341.333v-682.667h284.444v398.223h341.333v-398.223h284.444v682.667l-455.111 341.333z" />
<glyph unicode="&#xe92e;" glyph-name="book" d="M819.2 959.999h-614.4c-56.32 0-102.4-46.080-102.4-102.4v-819.201c0-56.32 46.080-102.4 102.4-102.4h614.4c56.32 0 102.4 46.080 102.4 102.4v819.201c0 56.32-46.080 102.4-102.4 102.4zM204.8 857.599h256v-409.6l-128 76.8-128-76.8v409.6z" />
<glyph unicode="&#xe92f;" glyph-name="history" d="M585.142 886.856c-242.346 0-438.857-196.511-438.857-438.857h-146.286l189.683-189.683 3.414-6.826 196.998 196.511h-146.286c0 188.709 152.625 341.334 341.334 341.334s341.334-152.625 341.334-341.334c0-188.709-152.625-341.334-341.334-341.334-94.111 0-179.443 38.522-240.883 100.449l-69.242-69.242c79.482-79.482 188.709-128.731 310.126-128.731 242.346 0 438.857 196.511 438.857 438.857s-196.511 438.857-438.857 438.857zM536.38 643.047v-243.809l208.701-123.855 35.109 59.002-170.666 101.425v207.238h-73.143z" />
<glyph unicode="&#xe930;" glyph-name="query_builder" d="M511.488 960c-282.624 0-511.488-229.376-511.488-512s228.864-512 511.488-512c283.136 0 512.511 229.376 512.511 512s-229.376 512-512.511 512zM512 38.401c-226.304 0-409.599 183.296-409.599 409.599s183.296 409.599 409.599 409.599c226.304 0 409.599-183.296 409.599-409.599s-183.296-409.599-409.599-409.599zM537.6 703.999h-76.8v-307.2l268.8-161.28 38.4 62.976-230.4 136.704v268.8z" />
<glyph unicode="&#xe931;" glyph-name="pin_drop" d="M819.201 652.8c0 169.472-137.728 307.2-307.2 307.2s-307.2-137.728-307.2-307.2c0-230.4 307.2-563.2 307.2-563.2s307.2 332.8 307.2 563.2zM409.601 652.8c0 56.32 46.080 102.4 102.4 102.4s102.4-46.080 102.4-102.4c0-56.32-45.568-102.4-102.4-102.4-56.32 0-102.4 46.080-102.4 102.4zM153.6 38.4v-102.4h716.8v102.4h-716.8z" />
<glyph unicode="&#xe932;" glyph-name="link" d="M97.279 448.001c0 87.552 71.169 158.721 158.721 158.721h204.801v97.281h-204.801c-141.312 0-256-114.688-256-256s114.688-256 256-256h204.801v97.281h-204.801c-87.552 0-158.721 71.169-158.721 158.721zM307.199 396.8h409.6v102.4h-409.6v-102.4zM768 704.001h-204.801v-97.281h204.801c87.552 0 158.721-71.169 158.721-158.721s-71.169-158.721-158.721-158.721h-204.801v-97.281h204.801c141.312 0 256 114.688 256 256s-114.688 256-256 256z" />
<glyph unicode="&#xe933;" glyph-name="done" d="M337.449 203.636l-244.364 244.364-81.454-81.454 325.818-325.818 698.182 698.184-81.454 81.454-616.728-616.729z" />
</font>
</defs>
</svg>
